<svg width="26" height="27" viewBox="0 0 26 27" fill="none" xmlns="http://www.w3.org/2000/svg">
<g clip-path="url(#clip0_1_48)">
<path d="M7.16001 21.7179C8.83049 23.1277 10.9441 23.9041 13.13 23.9109C18.368 23.9109 22.63 19.4829 22.63 14.0409C22.63 8.5979 18.368 4.1709 13.13 4.1709C10.9443 4.17739 8.83063 4.95345 7.16001 6.3629C5.48719 7.78122 4.32872 9.71154 3.86401 11.8549C3.80301 12.1349 3.97201 12.4149 4.24201 12.4779C4.30726 12.4923 4.37475 12.4936 4.4405 12.4816C4.50624 12.4695 4.56892 12.4445 4.62483 12.4078C4.68074 12.3712 4.72876 12.3238 4.76606 12.2683C4.80336 12.2129 4.82918 12.1505 4.84201 12.0849C5.72201 8.0379 9.13001 5.2119 13.13 5.2119C17.815 5.2119 21.627 9.1719 21.627 14.0409C21.627 18.9089 17.815 22.8689 13.13 22.8689C9.13001 22.8689 5.72201 20.0429 4.84201 15.9959C4.82918 15.9303 4.80336 15.8679 4.76606 15.8125C4.72876 15.757 4.68074 15.7096 4.62483 15.6729C4.56892 15.6363 4.50624 15.6113 4.4405 15.5992C4.37475 15.5872 4.30726 15.5884 4.24201 15.6029C4.11021 15.637 3.99692 15.7211 3.92631 15.8375C3.8557 15.9539 3.83334 16.0933 3.86401 16.2259C4.32845 18.3691 5.48756 20.2994 7.16001 21.7179Z" fill="white"/>
<path d="M24.964 8.70685C24.908 8.58803 24.8081 8.49556 24.6853 8.44884C24.5625 8.40213 24.4263 8.4048 24.3055 8.4563C24.1846 8.50781 24.0884 8.60413 24.037 8.72506C23.9857 8.84599 23.9832 8.98211 24.03 9.10485C24.663 10.5919 24.984 12.1709 24.984 13.7999C24.984 20.4079 19.608 25.7838 13 25.7838C6.39205 25.7838 1.01605 20.4079 1.01605 13.7999C1.01605 7.19185 6.39205 1.81585 13 1.81585C14.629 1.81585 16.209 2.13585 17.695 2.76985C17.8178 2.81672 17.9539 2.81421 18.0748 2.76285C18.1958 2.71149 18.2921 2.61528 18.3436 2.49441C18.3951 2.37355 18.3978 2.23743 18.3511 2.11463C18.3043 1.99184 18.2119 1.89192 18.093 1.83585C16.4831 1.14897 14.7504 0.796496 13 0.799851C11.2922 0.795294 9.60043 1.12951 8.02262 1.78315C6.44482 2.4368 5.01232 3.39688 3.80805 4.60785C2.59708 5.81213 1.63699 7.24462 0.983348 8.82243C0.329705 10.4002 -0.00451038 12.092 4.59668e-05 13.7999C4.59668e-05 17.2719 1.35205 20.5368 3.80805 22.9918C5.01232 24.2028 6.44482 25.1629 8.02262 25.8165C9.60043 26.4702 11.2922 26.8044 13 26.7999C16.472 26.7999 19.737 25.4478 22.192 22.9918C23.403 21.7876 24.3631 20.3551 25.0167 18.7773C25.6704 17.1995 26.0046 15.5077 26 13.7999C26 12.0339 25.651 10.3199 24.964 8.70685Z" fill="white"/>
<path d="M18.783 4.88183H20.938V7.06983C20.938 7.32983 21.156 7.53983 21.426 7.53983C21.5528 7.54171 21.6752 7.49333 21.7664 7.40527C21.8577 7.31721 21.9103 7.19661 21.913 7.06983V4.88183H24.068C24.1948 4.88371 24.3172 4.83533 24.4084 4.74727C24.4997 4.65921 24.5523 4.53861 24.555 4.41183C24.5529 4.2847 24.5004 4.16359 24.4091 4.0751C24.3178 3.98661 24.1951 3.93796 24.068 3.93983H21.913V1.75283C21.9119 1.68979 21.8985 1.62758 21.8734 1.56974C21.8483 1.5119 21.8121 1.45957 21.7668 1.41574C21.7214 1.37191 21.6679 1.33744 21.6093 1.31429C21.5506 1.29114 21.488 1.27977 21.425 1.28083C21.2978 1.27896 21.1752 1.32761 21.0838 1.4161C20.9925 1.50459 20.9401 1.6257 20.938 1.75283V3.93983H18.783C18.656 3.93796 18.5335 3.98647 18.4422 4.07475C18.3509 4.16302 18.2983 4.28387 18.296 4.41083C18.296 4.67083 18.514 4.88183 18.783 4.88183ZM4.33298 14.0398C4.33219 13.8487 4.25583 13.6656 4.12057 13.5305C3.98531 13.3955 3.80213 13.3194 3.61098 13.3188C3.41965 13.3194 3.23632 13.3956 3.10103 13.5309C2.96574 13.6662 2.8895 13.8495 2.88898 14.0408C2.88898 14.4388 3.21298 14.7628 3.61098 14.7628C3.8023 14.7623 3.98564 14.6861 4.12092 14.5508C4.25621 14.4155 4.33245 14.2322 4.33298 14.0408V14.0398Z" fill="white"/>
<path fill-rule="evenodd" clip-rule="evenodd" d="M17.518 15.0979C17.518 16.4449 16.29 17.2849 14.641 17.2849C12.992 17.2849 11.764 16.4229 11.764 15.1079C11.764 14.1919 12.27 13.6209 13.121 13.2659C12.486 12.9309 12.022 12.4249 12.022 11.5629C12.022 10.4099 13.132 9.52588 14.641 9.52588C16.15 9.52588 17.26 10.3989 17.26 11.5839C17.26 12.4239 16.796 12.9309 16.16 13.2649C16.98 13.6429 17.518 14.1819 17.518 15.0979ZM10.255 9.57988V17.1779H8.93903V10.9269L7.58103 11.3039L7.30103 10.2259L9.32702 9.57988H10.254H10.255ZM14.643 12.8239C13.867 12.8239 13.295 12.3599 13.295 11.7029C13.295 11.1099 13.835 10.6359 14.643 10.6359C15.451 10.6359 15.99 11.1099 15.99 11.6919C15.99 12.3599 15.418 12.8239 14.643 12.8239ZM13.058 15.0439C13.058 15.6579 13.651 16.1749 14.642 16.1749C15.634 16.1749 16.226 15.6689 16.226 15.0219C16.226 14.3319 15.536 13.8799 14.642 13.8799C13.748 13.8799 13.058 14.3319 13.058 15.0439Z" fill="white"/>
</g>
<defs>
<clipPath id="clip0_1_48">
<rect width="26" height="26" fill="white" transform="translate(0 0.799805)"/>
</clipPath>
</defs>
</svg>
