<svg width="75" height="31" viewBox="0 0 75 31" fill="none" xmlns="http://www.w3.org/2000/svg">
<g clip-path="url(#clip0_1_13)">
<path d="M60.3041 30.026C68.4203 30.026 75 23.4462 75 15.33C75 7.21379 68.4203 0.634064 60.3041 0.634064C52.1879 0.634064 45.6081 7.21379 45.6081 15.33C45.6081 23.4462 52.1879 30.026 60.3041 30.026ZM41.0473 21.9178C41.4505 21.9178 41.8372 21.7577 42.1223 21.4726C42.4074 21.1875 42.5676 20.8008 42.5676 20.3976C42.5676 19.9944 42.4074 19.6077 42.1223 19.3226C41.8372 19.0375 41.4505 18.8773 41.0473 18.8773C40.6441 18.8773 40.2574 19.0375 39.9723 19.3226C39.6872 19.6077 39.5271 19.9944 39.5271 20.3976C39.5271 20.8008 39.6872 21.1875 39.9723 21.4726C40.2574 21.7577 40.6441 21.9178 41.0473 21.9178ZM34.2801 9.06954H37.7544V22.0172H34.5507L29.2581 14.9165L29.3007 21.9158H25.8173V8.98541H29.0311L34.2811 16.4986L34.2801 9.06954ZM18.6061 22.2351C15.2585 22.2351 12.9527 20.0398 12.9527 16.8685V9.06954H16.4362V16.8766C16.4362 18.181 17.3362 19.081 18.6061 19.081C19.8852 19.081 20.7852 18.181 20.7852 16.8847V9.06954H24.2686V16.8685C24.2686 20.0408 21.9629 22.2351 18.6061 22.2351ZM7.57705 15.3635L12.6162 21.9168H8.23989L4.48989 16.683H4.3561V21.9158H0.871643V9.06954H4.35509V14.4209H4.44631L7.98853 9.06954H12.0102L7.57705 15.3635Z" fill="#0C2F75"/>
<path d="M72.1713 21.9128V18.8084H67.2152L72.5493 9.0665H62.4882V12.1628H66.8371L61.4777 21.9128H72.1713ZM60.7044 16.8655V9.0665H57.2209V16.8817C57.2209 18.178 56.3209 19.078 55.0419 19.078C53.7719 19.078 52.8719 18.178 52.8719 16.8736V9.0665H49.3885V16.8655C49.3885 20.0378 51.6932 22.2331 55.0419 22.2331C58.3986 22.2331 60.7044 20.0368 60.7044 16.8655Z" fill="white"/>
</g>
<defs>
<clipPath id="clip0_1_13">
<rect width="75" height="29.3919" fill="white" transform="translate(0 0.634064)"/>
</clipPath>
</defs>
</svg>
